<svg xmlns="http://www.w3.org/2000/svg" width="64" height="64" viewBox="0 0 64 64" fill="none">
  <!-- Background -->
  <rect width="64" height="64" fill="#171717" rx="8"/>
  
  <!-- Shield icon (green) -->
  <path d="M32 14C37.33 18 43.33 20 50 20V36C50 45 42.67 52.67 32 58C21.33 52.67 14 45 14 36V20C20.67 20 26.67 18 32 14Z" fill="#207227" stroke="#207227" stroke-width="2" stroke-linecap="round" stroke-linejoin="round"/>
  
  <!-- Cannabis leaf icon (gold) overlaid on shield -->
  <path d="M32 48C32 42 37 40 40 36C39 37 37 38 36 38C36 35 37 32 40 30C38 31 36 31 35 30C36 27 39 25 42 24C39 24 36 24 33 26C34 23 37 20 40 19C35 19 32 22 31 24C30 22 27 19 22 19C25 20 28 23 29 26C26 24 23 24 20 24C23 25 26 27 27 30C26 31 24 31 22 30C25 32 26 35 26 38C25 38 23 37 22 36C25 40 30 42 30 48" fill="#F2C94C" stroke="#F2C94C" stroke-width="1.5" stroke-linecap="round" stroke-linejoin="round"/>
</svg> 